<?xml version="1.0" standalone="no"?><!DOCTYPE svg PUBLIC "-//W3C//DTD SVG 1.1//EN" "http://www.w3.org/Graphics/SVG/1.1/DTD/svg11.dtd"><svg t="1581073622410" class="icon" viewBox="0 0 1024 1024" version="1.1" xmlns="http://www.w3.org/2000/svg" p-id="2753" xmlns:xlink="http://www.w3.org/1999/xlink" width="200" height="200"><defs><style type="text/css"></style></defs><path d="M947.2 896H76.8c-42.496 0-76.8-34.304-76.8-76.8V204.8c0-42.496 34.304-76.8 76.8-76.8h870.4c42.496 0 76.8 34.304 76.8 76.8v614.4c0 42.496-34.304 76.8-76.8 76.8zM76.8 179.2c-14.336 0-25.6 11.264-25.6 25.6v614.4c0 14.336 11.264 25.6 25.6 25.6h870.4c14.336 0 25.6-11.264 25.6-25.6V204.8c0-14.336-11.264-25.6-25.6-25.6H76.8z" fill="#FF8198" p-id="2754"></path><path d="M512.512 630.272c-12.8 0-25.6-4.608-35.84-14.336l-452.096-430.08c-10.24-9.728-10.752-26.112-1.024-36.352s26.112-10.752 36.352-1.024l452.096 430.08 448.512-433.152c10.24-9.728 26.624-9.728 36.352 0.512 9.728 10.24 9.728 26.624-0.512 36.352L547.84 615.936c-9.728 9.728-22.528 14.336-35.328 14.336z m-0.512-50.688z" fill="#FF8198" p-id="2755"></path></svg>